<?xml version="1.0" standalone="no"?>
<!DOCTYPE svg PUBLIC "-//W3C//DTD SVG 20010904//EN"
 "http://www.w3.org/TR/2001/REC-SVG-20010904/DTD/svg10.dtd">
<svg version="1.0" xmlns="http://www.w3.org/2000/svg"
 width="244.000000pt" height="244.000000pt" viewBox="0 0 244.000000 244.000000"
 preserveAspectRatio="xMidYMid meet">
<metadata>
Created by potrace 1.14, written by Peter Selinger 2001-2017
</metadata>
<g transform="translate(0.000000,244.000000) scale(0.100000,-0.100000)"
fill="#000000" stroke="none">
<path d="M1065 2419 c-251 -32 -491 -148 -678 -328 -123 -118 -128 -129 -128
-248 0 -54 -3 -264 -8 -468 -4 -203 -6 -482 -5 -619 3 -248 3 -249 29 -285 42
-61 89 -103 109 -95 11 4 16 14 13 26 -4 14 -2 18 10 14 18 -7 56 17 45 29 -4
5 -2 5 5 1 6 -3 31 2 55 13 24 10 54 24 68 29 23 9 22 10 -10 6 -25 -3 -42 1
-60 16 -14 11 -18 18 -10 15 22 -7 43 10 46 37 1 12 3 26 3 31 1 4 9 7 19 8
14 0 14 2 -3 9 -18 8 -17 9 6 9 46 2 46 39 -1 80 -46 40 109 -31 205 -94 76
-51 61 -49 178 -18 14 3 17 -2 17 -29 0 -32 0 -32 16 -10 8 12 12 26 9 32 -3
5 7 12 22 15 15 4 43 13 62 21 27 12 32 19 28 39 -5 30 13 33 36 8 9 -10 50
-34 91 -53 54 -25 76 -40 76 -53 0 -11 -4 -15 -11 -11 -7 4 -10 1 -7 -7 16
-49 248 24 248 78 0 5 11 24 25 43 14 19 23 40 20 48 -5 13 13 52 29 63 5 4 6
16 3 28 -3 11 1 25 9 32 8 6 14 22 14 34 0 12 7 28 15 35 8 7 15 17 15 22 0 5
8 18 19 29 l18 20 6 -21 c3 -11 1 -20 -4 -20 -11 0 -12 -57 -1 -62 15 -7 53
-136 47 -161 -6 -22 -4 -25 13 -20 14 3 19 11 15 21 -4 15 -3 15 6 2 8 -11 7
-18 -5 -27 -9 -6 -13 -16 -10 -21 3 -6 -1 -12 -9 -16 -8 -3 -15 -12 -15 -19 0
-8 -9 -27 -21 -43 -15 -21 -12 -20 11 6 59 65 98 170 68 184 -7 3 1 4 19 2 38
-5 53 -13 53 -29 0 -11 72 -77 84 -77 3 0 57 -25 120 -55 64 -29 123 -55 132
-57 13 -2 32 25 74 107 53 104 108 251 97 261 -3 3 -33 -35 -67 -85 -60 -88
-86 -118 -95 -109 -2 2 -6 19 -7 37 -3 39 -8 43 -65 46 -25 2 -47 6 -50 8 -6
7 -11 36 -12 73 -1 25 -6 33 -26 38 -20 5 -25 13 -25 36 0 16 -5 32 -11 36 -8
4 -7 9 2 15 8 4 14 22 15 39 2 39 10 47 54 55 19 3 44 9 55 15 11 5 55 12 98
15 42 4 77 10 77 15 0 4 15 3 34 -2 55 -17 66 -7 66 59 0 149 -36 327 -72 355
-17 13 -20 20 -10 26 10 7 9 17 -3 53 -21 61 -77 169 -88 169 -4 0 -6 -4 -3
-9 3 -4 -6 -6 -19 -3 -28 5 -39 29 -29 66 5 20 -1 37 -20 66 -30 46 -46 51
-46 15 0 -36 -60 -61 -111 -46 -20 6 -47 11 -59 11 -14 0 -37 15 -57 36 -18
20 -33 38 -33 39 0 1 18 3 39 3 49 1 118 19 127 33 3 6 0 18 -9 26 -24 24
-309 24 -357 0 -19 -9 -50 -21 -69 -27 -27 -7 -32 -7 -27 5 3 8 2 15 -3 15 -4
0 -6 12 -3 26 4 21 1 25 -14 22 -15 -2 -20 4 -22 29 -3 32 -3 33 30 27 18 -4
37 -11 42 -15 6 -5 18 -9 28 -9 26 0 23 35 -5 57 -28 22 -24 43 8 43 15 0 40
-16 64 -40 34 -35 45 -40 85 -40 24 0 51 -6 58 -13 7 -8 24 -19 36 -26 21 -11
24 -9 34 19 9 26 15 31 34 27 35 -6 15 14 -65 67 -168 111 -352 176 -571 201
-54 6 -54 6 -36 -14 25 -28 6 -53 -38 -49 -37 4 -48 35 -20 55 15 11 11 13
-37 12 -30 -1 -85 -6 -124 -10z m543 -102 c2 -12 -3 -17 -17 -17 -12 0 -21 6
-21 13 0 31 32 34 38 4z m-264 -23 c9 -3 16 -15 16 -26 0 -14 -5 -18 -16 -14
-9 3 -18 6 -20 6 -2 0 -4 9 -4 20 0 22 1 23 24 14z m-53 -71 c9 -7 17 -25 17
-38 0 -22 -5 -25 -36 -25 -39 0 -72 23 -72 51 0 38 54 45 91 12z m-261 -36 c0
-30 -6 -36 -31 -30 -21 6 -26 38 -6 46 26 11 37 6 37 -16z m320 -17 c0 -5 -2
-10 -4 -10 -3 0 -8 5 -11 10 -3 6 -1 10 4 10 6 0 11 -4 11 -10z m-365 -70 c3
-5 1 -10 -4 -10 -6 0 -11 5 -11 10 0 6 2 10 4 10 3 0 8 -4 11 -10z m-45 -4 c0
-2 -7 -7 -16 -10 -8 -3 -12 -2 -9 4 6 10 25 14 25 6z m828 -109 c19 -12 14
-37 -7 -37 -68 0 -149 29 -136 50 5 8 127 -3 143 -13z m-665 -24 c-7 -2 -21
-2 -30 0 -10 3 -4 5 12 5 17 0 24 -2 18 -5z m227 -98 c47 -20 95 -40 106 -46
24 -13 58 -9 56 6 0 6 -11 13 -24 16 -21 5 -21 6 7 11 37 7 46 -5 43 -54 -1
-21 3 -43 10 -50 18 -18 15 -26 -10 -30 -13 -2 -24 -11 -26 -21 -2 -11 2 -18
10 -17 20 3 58 -11 58 -21 0 -5 7 -9 16 -9 13 0 15 -7 11 -30 -4 -16 -3 -30 2
-30 12 0 25 -63 25 -125 1 -37 -4 -53 -17 -63 -13 -10 -15 -17 -7 -27 25 -30
62 -224 40 -210 -10 6 -8 -20 6 -62 2 -7 0 -13 -5 -13 -5 0 -14 -28 -21 -62
-14 -65 -28 -60 -29 12 -1 19 -5 42 -10 49 -10 16 -13 8 -26 -74 l-7 -40 -16
32 c-14 25 -19 28 -29 18 -9 -10 -9 -15 0 -25 9 -10 9 -14 0 -17 -19 -7 -16
-23 5 -23 15 -1 15 -2 -3 -16 -17 -12 -18 -17 -7 -35 8 -12 11 -24 8 -27 -3
-3 -6 -1 -6 5 0 6 -7 13 -15 17 -8 3 -14 2 -14 -2 3 -15 -14 -73 -22 -78 -5
-3 -7 -10 -3 -15 3 -6 -3 -13 -15 -16 -20 -5 -25 -19 -22 -68 0 -15 -1 -16 -7
-5 -10 20 -32 24 -32 5 0 -19 -24 -19 -44 0 -13 13 -15 13 -21 -5 -7 -23 -21
-26 -28 -7 -3 8 -10 6 -21 -8 -9 -12 -15 -15 -16 -7 0 7 -9 22 -20 34 l-20 22
-1 -35 c0 -27 -2 -30 -8 -14 -5 11 -6 27 -3 35 5 13 3 13 -11 1 -18 -14 -22
-7 -18 28 2 7 -2 10 -8 6 -7 -3 -11 2 -11 14 0 11 -9 25 -20 31 -11 6 -19 16
-17 23 1 7 -4 11 -10 10 -8 -2 -13 7 -13 20 0 13 -7 32 -15 43 -13 18 -14 18
-8 -6 5 -24 5 -24 -12 -8 -14 13 -22 14 -35 5 -15 -9 -22 -6 -39 14 -48 55
-82 120 -95 180 -8 35 -24 109 -36 164 -12 55 -29 129 -38 165 -10 39 -17 107
-17 171 0 102 1 109 35 174 19 38 44 73 55 79 11 6 22 13 25 16 9 9 111 18
325 29 17 0 69 -15 115 -34z m405 -54 c22 -4 57 -3 78 1 35 8 42 5 98 -38 57
-44 63 -46 111 -42 46 5 50 3 59 -20 17 -44 13 -121 -6 -142 -16 -17 -26 -19
-69 -14 -28 4 -57 11 -64 17 -6 5 -27 13 -45 16 -28 6 -33 12 -42 50 -6 24
-19 47 -29 53 -10 5 -19 8 -20 6 -1 -1 -14 -29 -29 -60 -20 -43 -33 -59 -53
-64 -30 -8 -40 4 -50 53 -4 23 -1 37 10 48 23 23 20 37 -14 80 -50 63 -37 75
65 56z m105 -231 c0 -5 -7 -10 -16 -10 -8 0 -12 5 -9 10 3 6 10 10 16 10 5 0
9 -4 9 -10z m346 -5 c-3 -10 1 -15 11 -15 9 0 14 -2 11 -5 -3 -4 -17 -3 -31 0
-27 7 -27 35 0 35 9 0 13 -6 9 -15z m89 -23 c-8 -8 -25 10 -19 20 4 6 9 5 15
-3 4 -7 6 -15 4 -17z m-112 -9 c-7 -2 -19 -2 -25 0 -7 3 -2 5 12 5 14 0 19 -2
13 -5z m94 -9 c-3 -3 -12 -4 -19 -1 -8 3 -5 6 6 6 11 1 17 -2 13 -5z m-569
-76 c10 -10 15 -10 22 1 6 11 13 -2 26 -44 16 -56 16 -62 -1 -115 -28 -89 -37
-110 -46 -110 -13 0 -11 114 2 127 12 12 -5 118 -22 128 -11 7 -12 25 -1 25 4
0 14 -6 20 -12z m9 -415 c-2 -16 -4 -3 -4 27 0 30 2 43 4 28 2 -16 2 -40 0
-55z m-1213 -57 c-3 -15 -8 -25 -11 -23 -2 3 -1 17 3 31 3 15 8 25 11 23 2 -3
1 -17 -3 -31z m425 -33 c10 -21 9 -23 -7 -14 -9 5 -26 16 -36 24 -19 14 -19
15 6 15 18 0 29 -8 37 -25z m-135 -18 c3 -8 1 -15 -4 -15 -6 0 -10 7 -10 15 0
8 2 15 4 15 2 0 6 -7 10 -15z m205 -154 c7 -51 11 -95 8 -97 -3 -3 -17 28 -33
68 -15 40 -34 82 -41 93 -16 25 -17 47 0 64 10 10 16 7 33 -12 15 -18 24 -50
33 -116z m-193 -52 c31 -46 68 -96 82 -111 18 -19 21 -28 11 -28 -8 0 -39 26
-70 58 -46 48 -64 60 -99 66 -23 4 -56 14 -74 23 l-31 17 57 10 57 11 -19 55
c-26 74 -24 85 5 29 13 -26 50 -84 81 -130z m14 143 c0 -15 -2 -15 -10 -2 -13
20 -13 33 0 25 6 -3 10 -14 10 -23z m20 -32 c0 -5 -2 -10 -4 -10 -3 0 -8 5
-11 10 -3 6 -1 10 4 10 6 0 11 -4 11 -10z m60 -125 c0 -5 -5 -3 -10 5 -5 8
-10 20 -10 25 0 6 5 3 10 -5 5 -8 10 -19 10 -25z m30 -48 c0 -4 -6 -2 -14 5
-8 7 -12 17 -9 22 5 8 23 -12 23 -27z m370 3 c0 -5 -5 -10 -11 -10 -5 0 -7 5
-4 10 3 6 8 10 11 10 2 0 4 -4 4 -10z m-753 -186 c-3 -3 -12 -4 -19 -1 -8 3
-5 6 6 6 11 1 17 -2 13 -5z"/>
<path d="M1302 1536 c-62 -15 -61 -15 -80 -64 -15 -37 -18 -100 -7 -159 6 -36
25 -45 25 -14 0 11 5 23 10 26 6 3 10 12 10 18 0 7 -4 6 -11 -3 -7 -11 -9 -5
-6 23 6 44 15 57 26 39 6 -10 13 -8 32 6 18 14 40 18 91 17 84 -2 96 4 73 39
-14 21 -25 26 -56 26 -68 0 -42 17 37 25 44 4 72 11 67 16 -15 15 -155 18
-211 5z"/>
<path d="M945 1450 c-31 -16 -63 -30 -71 -30 -8 0 -14 -5 -14 -11 0 -7 9 -9
23 -5 39 11 112 19 105 12 -3 -4 -21 -15 -39 -24 -32 -17 -58 -46 -48 -56 7
-7 79 5 75 13 -4 6 9 8 79 11 19 1 35 6 35 11 0 5 7 9 15 9 8 0 15 8 15 18 0
20 -78 82 -103 82 -8 0 -41 -13 -72 -30z m50 -60 c3 -6 -4 -10 -17 -10 -18 0
-20 2 -8 10 19 12 18 12 25 0z"/>
<path d="M1370 1380 c-11 -7 -5 -8 20 -4 43 8 51 14 19 14 -13 0 -31 -5 -39
-10z"/>
<path d="M1054 1331 c-5 -5 -25 -14 -44 -20 l-35 -11 39 5 c38 4 65 19 55 30
-3 2 -10 1 -15 -4z"/>
<path d="M1240 1256 c0 -9 5 -16 10 -16 6 0 10 4 10 9 0 6 -4 13 -10 16 -5 3
-10 -1 -10 -9z"/>
<path d="M1322 1213 c2 -11 -8 -22 -27 -31 -16 -8 -47 -26 -68 -40 -34 -23
-42 -24 -70 -14 -37 14 -40 12 -28 -22 6 -14 8 -32 5 -39 -5 -14 21 -17 41 -5
6 3 19 2 30 -2 12 -4 31 -2 48 7 16 8 36 12 45 8 14 -5 12 -9 -10 -21 -16 -8
-28 -17 -28 -20 0 -4 12 -3 28 0 73 18 102 18 102 2 0 -9 -4 -16 -10 -16 -5 0
-10 -6 -10 -14 0 -8 -8 -16 -17 -18 -11 -2 -14 -6 -8 -10 6 -4 33 14 59 40 47
44 76 60 76 41 0 -5 7 -9 15 -9 23 0 19 62 -5 83 -16 13 -20 14 -20 3 0 -11
-14 -14 -55 -13 l-55 2 -11 53 c-7 28 -16 52 -21 52 -5 0 -8 -8 -6 -17z m68
-122 c0 -9 -35 -21 -60 -20 -8 0 -1 7 15 14 36 17 45 18 45 6z"/>
<path d="M1014 1017 c-7 -34 10 -57 28 -39 16 16 54 15 82 -3 22 -15 22 -14
18 14 -4 26 -1 30 24 34 16 2 10 3 -13 2 -23 -1 -47 3 -53 9 -6 6 -26 11 -45
11 -30 0 -35 -4 -41 -28z"/>
<path d="M1717 1399 c3 -35 1 -64 -7 -79 -10 -18 -9 -21 2 -18 25 9 31 51 15
103 l-15 50 5 -56z"/>
<path d="M132 1743 c-27 -52 -27 -53 -2 -53 25 0 32 17 28 62 l-3 33 -23 -42z"/>
<path d="M24 1063 c8 -93 49 -238 88 -320 l33 -68 3 214 c2 149 -1 218 -9 227
-7 9 -32 14 -67 14 l-55 0 7 -67z"/>
<path d="M1966 623 c-4 -4 -13 -8 -19 -8 -7 0 -12 -4 -12 -10 0 -14 34 -8 51
10 13 12 13 15 1 15 -7 0 -17 -3 -21 -7z"/>
<path d="M2030 610 c0 -5 4 -10 9 -10 6 0 13 5 16 10 3 6 -1 10 -9 10 -9 0
-16 -4 -16 -10z"/>
<path d="M722 569 c2 -13 -2 -24 -9 -24 -24 0 -23 -13 2 -18 17 -3 28 0 32 9
3 8 16 14 29 14 31 0 31 16 0 24 -13 3 -31 9 -40 12 -12 5 -16 1 -14 -17z"/>
<path d="M1992 534 c-7 -8 -12 -19 -10 -23 2 -5 11 2 21 15 19 26 10 33 -11 8z"/>
<path d="M2165 510 c-16 -16 -24 -30 -19 -30 6 0 23 14 39 30 16 17 24 30 19
30 -6 0 -23 -13 -39 -30z"/>
<path d="M635 509 c-17 -6 -16 -8 7 -8 15 -1 29 3 32 7 6 11 -14 11 -39 1z"/>
<path d="M746 483 c-8 -16 -40 -59 -71 -98 -69 -84 -114 -170 -98 -186 8 -8
23 13 57 77 25 49 70 117 101 152 30 35 55 67 55 73 0 20 -30 7 -44 -18z"/>
<path d="M1708 438 c-8 -18 -12 -26 -10 -18 2 9 0 11 -6 5 -17 -19 -88 -333
-77 -343 3 -3 5 3 5 14 0 15 2 16 9 5 11 -16 20 13 51 150 11 53 29 124 40
158 19 65 12 83 -12 29z"/>
<path d="M1938 352 c-57 -149 -54 -136 -30 -123 12 6 26 20 32 32 10 18 43
180 37 185 -1 1 -19 -41 -39 -94z"/>
<path d="M1002 362 c-7 -12 -10 -28 -6 -34 4 -6 3 -8 -4 -5 -11 8 -49 -99 -38
-110 3 -3 6 -1 6 5 0 7 14 34 31 62 19 32 29 59 27 77 l-3 28 -13 -23z"/>
<path d="M1120 343 c0 -13 27 -49 33 -43 3 3 -3 16 -14 29 -10 13 -19 19 -19
14z"/>
<path d="M514 319 c-17 -5 -37 -16 -44 -25 -12 -13 -10 -14 16 -9 57 13 64 17
64 31 0 8 -1 14 -2 13 -2 0 -17 -5 -34 -10z"/>
<path d="M1402 223 c-7 -10 -10 -12 -7 -5 3 6 1 12 -5 12 -7 0 -10 -6 -7 -14
3 -8 1 -17 -6 -19 -7 -2 -9 -8 -5 -12 9 -9 51 30 47 44 -2 6 -10 4 -17 -6z"/>
<path d="M1122 207 c-6 -7 -7 -26 -3 -47 l8 -35 4 48 c2 26 4 47 3 47 -1 0 -6
-6 -12 -13z"/>
<path d="M1343 141 c-12 -16 -24 -48 -27 -76 -4 -35 -3 -43 3 -25 9 24 9 24
10 3 2 -46 17 -21 29 48 7 40 11 73 10 74 -2 1 -13 -10 -25 -24z"/>
<path d="M1128 75 c-6 -49 -4 -64 8 -53 3 3 4 28 2 54 l-3 49 -7 -50z"/>
</g>
</svg>
